<svg xmlns="http://www.w3.org/2000/svg" viewBox="0 0 38 40" fill="none" id="user">
<path d="M23.75 3.01036C20.8107 1.31335 17.1893 1.31335 14.25 3.01036L6.66154 7.39156C3.72223 9.08857 1.91154 12.2248 1.91154 15.6188V24.3812C1.91154 27.7752 3.72223 30.9114 6.66154 32.6084L14.25 36.9896C17.1893 38.6867 20.8107 38.6866 23.75 36.9896L31.3385 32.6084C34.2778 30.9114 36.0885 27.7752 36.0885 24.3812V15.6188C36.0885 12.2248 34.2778 9.08857 31.3385 7.39156L23.75 3.01036Z" fill="#00C6AD" stroke="#00DABE" stroke-width="3"/>
<g style="mix-blend-mode:overlay">
<path fill-rule="evenodd" clip-rule="evenodd" d="M50.4 54.5c10.1 0 18.2-8.2 18.2-18.2S60.5 18 50.4 18s-18.2 8.2-18.2 18.2 8.1 18.3 18.2 18.3zm0-31.7c7.4 0 13.4 6 13.4 13.4s-6 13.4-13.4 13.4S37 43.7 37 36.3s6-13.5 13.4-13.5zM18.8 83h63.4c1.3 0 2.4-1.1 2.4-2.4 0-12.6-10.3-22.9-22.9-22.9H39.3c-12.6 0-22.9 10.3-22.9 22.9 0 1.3 1.1 2.4 2.4 2.4zm20.5-20.5h22.4c9.2 0 16.7 6.8 17.9 15.7H21.4c1.2-8.9 8.7-15.7 17.9-15.7z"></path>
<path fill-rule="evenodd" clip-rule="evenodd" d="M19.6 19.1667V18.5667H18.4V19.1667V21.0515L17.0659 19.7174L16.6416 19.2931L15.7931 20.1416L16.2174 20.5659L17.5515 21.9H15.6667H15.0667V23.1H15.6667H17.5514L16.2174 24.434L15.7931 24.8583L16.6416 25.7068L17.0659 25.2825L18.4 23.9484V25.8333V26.4333H19.6V25.8333V23.9485L20.934 25.2825L21.3583 25.7068L22.2068 24.8583L21.7825 24.434L20.4485 23.1H22.3333H22.9333V21.9H22.3333H20.4484L21.7825 20.5659L22.2068 20.1416L21.3583 19.2931L20.934 19.7174L19.6 21.0514V19.1667Z" fill="white"/>

</g>
</svg>



